<?xml version="1.0" encoding="utf-8"?>
<!-- Generator: Adobe Illustrator 16.0.0, SVG Export Plug-In . SVG Version: 6.00 Build 0)  -->
<!DOCTYPE svg PUBLIC "-//W3C//DTD SVG 1.1//EN" "http://www.w3.org/Graphics/SVG/1.1/DTD/svg11.dtd">
<svg version="1.1" id="Layer_1" xmlns="http://www.w3.org/2000/svg" xmlns:xlink="http://www.w3.org/1999/xlink" x="0px" y="0px"
	 width="152.885px" height="200.661px" viewBox="0 0 152.885 200.661" enable-background="new 0 0 152.885 200.661"
	 xml:space="preserve">
<g transform="translate(64,14)">
	<path fill="#FF9800" d="M88.885,43.332H31.554V-14h-81.687C-57.062-14-64-7.062-64-0.133v172.938
		c0,6.915,6.938,13.855,13.867,13.855H75.019c6.924,0,13.866-6.94,13.866-13.855V43.332L88.885,43.332z"/>
	<polygon fill="#F57C00" points="31.554,43.332 88.885,43.332 88.885,83.004 	"/>
	<polygon fill="#FFCC80" points="88.885,43.332 31.554,43.332 31.554,-14 	"/>
</g>
<g>
	<path fill="#FFF3E0" d="M72.671,139.139H51.295l-4.064,12.191H34.266l22.027-59.172h11.298l22.149,59.172H76.776L72.671,139.139z
		 M54.586,129.263h14.793l-7.437-22.149L54.586,129.263z"/>
	<path fill="#FFF3E0" d="M108.231,151.331H96.039V92.158h12.192V151.331z"/>
</g>
</svg>
