<?xml version="1.0" encoding="utf-8"?>
<!-- Generator: Adobe Illustrator 16.0.0, SVG Export Plug-In . SVG Version: 6.00 Build 0)  -->
<!DOCTYPE svg PUBLIC "-//W3C//DTD SVG 1.1//EN" "http://www.w3.org/Graphics/SVG/1.1/DTD/svg11.dtd">
<svg version="1.1" id="Layer_1" xmlns="http://www.w3.org/2000/svg" xmlns:xlink="http://www.w3.org/1999/xlink" x="0px" y="0px"
	 width="152.885px" height="200.661px" viewBox="0 0 152.885 200.661" enable-background="new 0 0 152.885 200.661"
	 xml:space="preserve">
<g transform="translate(188)">
	<path fill="#FF5722" d="M-35.116,57.332h-57.332V0h-81.574C-181.02,0-188,6.984-188,13.979v172.704
		c0,7.003,6.98,13.979,13.979,13.979h124.918c7.008,0,13.987-6.976,13.987-13.979L-35.116,57.332L-35.116,57.332z"/>
	<polygon fill="#E64A19" points="-92.446,57.332 -35.116,57.332 -35.116,97.848 	"/>
	<polygon fill="#FFAB91" points="-35.116,57.332 -92.446,57.332 -92.446,0 	"/>
</g>
<polygon fill="#FBE9E7" points="76.486,112.933 56.814,112.933 55.456,97.709 76.486,97.709 76.486,82.843 76.435,82.843 
	39.208,82.843 39.564,86.831 43.218,127.799 76.486,127.799 "/>
<polygon fill="#FBE9E7" points="76.486,151.542 76.421,151.56 59.864,147.088 58.806,135.232 50.761,135.232 43.882,135.232 
	45.965,158.575 76.418,167.029 76.486,167.008 "/>
<polygon fill="#FBE9E7" points="76.435,112.933 76.435,127.799 94.741,127.799 93.015,147.081 76.435,151.555 76.435,167.022 
	106.912,158.575 107.135,156.063 110.629,116.924 110.992,112.933 106.985,112.933 "/>
<polygon fill="#FBE9E7" points="76.435,82.843 76.435,92.076 76.435,97.673 76.435,97.709 112.297,97.709 112.297,97.709 
	112.344,97.709 112.642,94.368 113.319,86.831 113.676,82.843 "/>
</svg>
