<?xml version="1.0" encoding="utf-8"?>
<!-- Generator: Adobe Illustrator 16.0.0, SVG Export Plug-In . SVG Version: 6.00 Build 0)  -->
<!DOCTYPE svg PUBLIC "-//W3C//DTD SVG 1.1//EN" "http://www.w3.org/Graphics/SVG/1.1/DTD/svg11.dtd">
<svg version="1.1" id="Layer_1" xmlns="http://www.w3.org/2000/svg" xmlns:xlink="http://www.w3.org/1999/xlink" x="0px" y="0px"
	 width="152.885px" height="200.661px" viewBox="0 0 152.885 200.661" enable-background="new 0 0 152.885 200.661"
	 xml:space="preserve">
<g transform="translate(64,14)">
	<path fill="#F44336" d="M88.885,43.332H31.554V-14h-81.687C-57.062-14-64-7.062-64-0.133v172.938
		c0,6.915,6.938,13.855,13.867,13.855H75.019c6.924,0,13.866-6.94,13.866-13.855V43.332L88.885,43.332z"/>
	<polygon fill="#D32F2F" points="31.554,43.332 88.885,43.332 88.885,83.004 	"/>
	<polygon fill="#EF9A9A" points="88.885,43.332 31.554,43.332 31.554,-14 	"/>
	<g>
		<path fill="#FFEBEE" d="M-25.719,113.304v13.526h-7.91V88.44h14.977c2.883,0,5.418,0.527,7.607,1.582s3.872,2.554,5.049,4.496
			c1.177,1.942,1.767,4.152,1.767,6.631c0,3.762-1.288,6.729-3.863,8.898c-2.575,2.172-6.14,3.257-10.692,3.257H-25.719z
			 M-25.719,106.897h7.066c2.092,0,3.687-0.492,4.786-1.477c1.098-0.984,1.648-2.391,1.648-4.219c0-1.881-0.554-3.401-1.661-4.562
			s-2.637-1.758-4.588-1.793h-7.251V106.897z"/>
		<path fill="#FFEBEE" d="M1.202,126.831V88.44h11.813c3.375,0,6.394,0.761,9.056,2.281c2.664,1.521,4.742,3.683,6.236,6.486
			s2.242,5.989,2.242,9.558v1.767c0,3.568-0.734,6.741-2.203,9.519c-1.467,2.777-3.537,4.931-6.209,6.46s-5.687,2.303-9.044,2.32
			H1.202z M9.112,94.847v25.629h3.823c3.093,0,5.458-1.011,7.092-3.032c1.635-2.021,2.471-4.913,2.506-8.675v-2.03
			c0-3.902-0.809-6.859-2.426-8.873c-1.618-2.012-3.981-3.019-7.093-3.019H9.112z"/>
		<path fill="#FFEBEE" d="M59.395,111.142H44.207v15.688h-7.91V88.44h24.996v6.407H44.207v9.914h15.188V111.142z"/>
	</g>
</g>
</svg>
