<?xml version="1.0" encoding="utf-8"?>
<!-- Generator: Adobe Illustrator 16.0.0, SVG Export Plug-In . SVG Version: 6.00 Build 0)  -->
<!DOCTYPE svg PUBLIC "-//W3C//DTD SVG 1.1//EN" "http://www.w3.org/Graphics/SVG/1.1/DTD/svg11.dtd">
<svg version="1.1" id="Layer_1" xmlns="http://www.w3.org/2000/svg" xmlns:xlink="http://www.w3.org/1999/xlink" x="0px" y="0px"
	 width="152.885px" height="200.661px" viewBox="0 0 152.885 200.661" enable-background="new 0 0 152.885 200.661"
	 xml:space="preserve">
<g transform="translate(212,48)">
	<path fill="#F4B400" d="M-59.51,9.295h-56.998V-48h-81.551C-205.043-48-212-41.03-212-34.059v172.642
		c0,6.98,6.957,13.951,13.942,13.951h124.597c6.976,0,13.951-6.971,13.951-13.951V9.295z"/>
	<polygon fill="#D59B11" points="-116.507,9.295 -59.51,9.295 -59.51,49.591 	"/>
	<polygon fill="#FFE168" points="-59.51,9.295 -116.507,9.295 -116.507,-48 	"/>
	<g>
		<path opacity="0.9" fill="#FFFFFF" enable-background="new    " d="M-133.172,18.989h-52.754c-3.852,0-6.975,3.12-6.975,6.961
			v52.614c0,3.842,3.124,6.971,6.975,6.971h52.745c3.851,0,6.957-3.128,6.957-6.971V25.951
			C-126.206,22.109-129.32,18.989-133.172,18.989z M-135.606,66.591h-47.746V37.944h47.746V66.591z"/>
		<path opacity="0.9" fill="#FFFFFF" enable-background="new    " d="M-85.435,37.944h-40.621v19.099h38.197v38.196h-57.295V85.69
			h-9.4v21.677c0,3.855,3.115,6.97,6.966,6.97h62.164c3.86,0,6.966-3.115,6.966-6.97V44.914
			C-78.459,41.058-81.574,37.944-85.435,37.944z"/>
	</g>
</g>
</svg>
