<?xml version="1.0" encoding="utf-8"?>
<!-- Generator: Adobe Illustrator 16.0.0, SVG Export Plug-In . SVG Version: 6.00 Build 0)  -->
<!DOCTYPE svg PUBLIC "-//W3C//DTD SVG 1.1//EN" "http://www.w3.org/Graphics/SVG/1.1/DTD/svg11.dtd">
<svg version="1.1" id="Layer_1" xmlns="http://www.w3.org/2000/svg" xmlns:xlink="http://www.w3.org/1999/xlink" x="0px" y="0px"
	 width="152.885px" height="200.661px" viewBox="0 0 152.885 200.661" enable-background="new 0 0 152.885 200.661"
	 xml:space="preserve">
<g transform="translate(188)">
	<path fill="#0F9D58" d="M-35.116,57.332h-57.332V0h-81.574C-181.02,0-188,6.984-188,13.979v172.704
		c0,7.003,6.98,13.979,13.979,13.979h124.918c7.008,0,13.988-6.975,13.988-13.979V57.332z"/>
	<path opacity="0.9" fill="#FFFFFF" enable-background="new    " d="M-159.334,85.998v66.887h95.552V85.998H-159.334z
		 M-149.779,95.553h19.11v19.11h-19.11V95.553z M-149.779,124.218h19.11v19.111h-19.11V124.218z M-73.337,143.329h-47.776v-19.111
		h47.776V143.329z M-73.337,114.663h-47.776v-19.11h47.776V114.663z"/>
	<polygon fill="#147042" points="-92.447,57.332 -35.116,57.332 -35.116,97.848 	"/>
	<polygon fill="#7BCFA9" points="-35.116,57.332 -92.447,57.332 -92.447,0 	"/>
</g>
</svg>
