<?xml version="1.0" encoding="utf-8"?>
<!-- Generator: Adobe Illustrator 16.0.0, SVG Export Plug-In . SVG Version: 6.00 Build 0)  -->
<!DOCTYPE svg PUBLIC "-//W3C//DTD SVG 1.1//EN" "http://www.w3.org/Graphics/SVG/1.1/DTD/svg11.dtd">
<svg version="1.1" id="Layer_1" xmlns="http://www.w3.org/2000/svg" xmlns:xlink="http://www.w3.org/1999/xlink" x="0px" y="0px"
	 width="48px" height="48px" viewBox="0 0 48 48" enable-background="new 0 0 48 48" xml:space="preserve">
<path fill="none" d="M0,0h48v48H0V0z"/>
<path fill="#089CA8" d="M7.8,36c0-3.42,2.78-6.2,6.2-6.2h8V26h-8C8.48,26,4,30.48,4,36s4.48,10,10,10h8v-3.8h-8
	C10.58,42.2,7.8,39.42,7.8,36z M16,38h16v-4H16V38z M34,26h-8v3.8h8c3.42,0,6.2,2.78,6.2,6.2s-2.78,6.2-6.2,6.2h-8V46h8
	c5.52,0,10-4.48,10-10S39.52,26,34,26z"/>
</svg>
