<?xml version="1.0" encoding="utf-8"?>
<!-- Generator: Adobe Illustrator 16.0.3, SVG Export Plug-In . SVG Version: 6.00 Build 0)  -->
<!DOCTYPE svg PUBLIC "-//W3C//DTD SVG 1.1//EN" "http://www.w3.org/Graphics/SVG/1.1/DTD/svg11.dtd">
<svg version="1.1" id="Layer_1" xmlns="http://www.w3.org/2000/svg" xmlns:xlink="http://www.w3.org/1999/xlink" x="0px" y="0px"
	 width="217.676px" height="231.108px" viewBox="0 0 217.676 231.108" enable-background="new 0 0 217.676 231.108"
	 xml:space="preserve">
<path fill="#F44336" d="M208.029,138.725c4.615,2.608,7.599,6.495,8.953,11.661c1.354,5.166,0.727,10.056-1.881,14.67l-9.63,16.551
	c-2.608,4.614-6.495,7.598-11.66,8.953c-5.166,1.354-10.056,0.727-14.67-1.881l-40.022-23.021v46.191
	c0,5.216-1.906,9.73-5.718,13.542c-3.812,3.812-8.325,5.718-13.542,5.718H100.6c-5.216,0-9.729-1.906-13.542-5.718
	c-3.812-3.812-5.717-8.326-5.717-13.542v-46.191l-40.023,23.021c-4.614,2.608-9.504,3.235-14.67,1.881
	c-5.166-1.354-9.053-4.338-11.661-8.953l-9.629-16.551c-2.608-4.614-3.235-9.504-1.881-14.67c1.354-5.166,4.338-9.053,8.953-11.661
	l40.022-23.171L12.43,92.383c-4.614-2.608-7.599-6.495-8.953-11.661c-1.354-5.166-0.727-10.056,1.881-14.67l9.629-16.551
	c2.608-4.614,6.495-7.598,11.661-8.952c5.166-1.354,10.056-0.728,14.67,1.881l40.023,23.021V19.259c0-5.216,1.906-9.73,5.717-13.542
	C90.871,1.906,95.384,0,100.6,0h19.259c5.217,0,9.73,1.906,13.542,5.717c3.812,3.812,5.718,8.326,5.718,13.542v46.191l40.022-23.021
	c4.614-2.608,9.504-3.235,14.67-1.881c5.166,1.354,9.052,4.338,11.66,8.952l9.63,16.551c2.608,4.614,3.235,9.504,1.881,14.67
	c-1.354,5.166-4.338,9.053-8.953,11.661l-40.022,23.171L208.029,138.725z"/>
</svg>
