<?xml version="1.0" encoding="utf-8"?>
<!-- Generator: Adobe Illustrator 16.0.0, SVG Export Plug-In . SVG Version: 6.00 Build 0)  -->
<!DOCTYPE svg PUBLIC "-//W3C//DTD SVG 1.1//EN" "http://www.w3.org/Graphics/SVG/1.1/DTD/svg11.dtd">
<svg version="1.1" xmlns="http://www.w3.org/2000/svg" xmlns:xlink="http://www.w3.org/1999/xlink" x="0px" y="0px"
	 width="2385.961px" height="637.164px" viewBox="0 0 2385.961 637.164" enable-background="new 0 0 2385.961 637.164"
	 xml:space="preserve">
<g id="Layer_2">
</g>
<g id="Layer_1">
	<g>
		<path fill="#FFFFFF" d="M682.307,238.745h24.604v171.744h-24.604V238.745z"/>
		<path fill="#FFFFFF" d="M739.905,285.003h22.391v19.928h0.492c3.445-7.049,8.938-12.627,16.486-16.731
			c7.542-4.099,15.747-6.151,24.604-6.151c15.909,0,27.72,4.638,35.431,13.904c7.708,9.269,11.563,22.597,11.563,39.98v74.555
			h-23.128v-64.957c0-15.089-1.969-26.16-5.904-33.218c-3.938-7.051-10.827-10.906-20.669-11.563
			c-12.633,0-22.144,4.634-28.542,13.9c-6.396,9.269-9.596,21.859-9.596,37.768v58.069h-23.129V285.003z"/>
		<path fill="#FFFFFF" d="M874.47,385.882c4.263,2.791,9.184,4.966,14.762,6.521c5.575,1.56,10.25,2.338,14.026,2.338
			c6.232,0,11.725-1.478,16.485-4.429c4.756-2.954,7.135-7.464,7.135-13.532c0-4.594-1.844-8.365-5.537-11.32
			c-3.69-2.95-9.472-6.314-17.346-10.086c-5.252-2.463-9.435-4.593-12.548-6.4c-3.119-1.802-6.152-4.017-9.105-6.64
			c-2.952-2.624-5.333-5.742-7.135-9.352c-1.807-3.609-2.706-7.709-2.706-12.303c0-12.465,4.141-22.022,12.426-28.664
			c8.281-6.643,18.902-9.967,31.862-9.967c4.922,0,9.596,0.413,14.025,1.231c4.429,0.821,9.35,2.051,14.763,3.689l-1.968,20.176
			c-2.461-1.474-6.396-2.909-11.81-4.304c-5.415-1.39-9.598-2.091-12.55-2.091c-6.236,0-11.483,1.312-15.747,3.935
			c-4.268,2.625-6.397,6.398-6.397,11.318c0,5.087,1.846,9.068,5.536,11.934c3.691,2.87,9.389,6.112,17.101,9.722
			c5.083,2.296,9.265,4.349,12.548,6.149c3.28,1.807,6.398,4.059,9.351,6.768c2.953,2.706,5.328,6.029,7.135,9.964
			c1.804,3.935,2.706,8.531,2.706,13.779c0,12.634-4.268,22.309-12.794,29.033c-8.531,6.728-18.866,10.088-31.003,10.088
			c-6.727,0-12.917-0.492-18.576-1.479c-5.659-0.981-10.95-2.785-15.87-5.409L874.47,385.882z"/>
		<path fill="#FFFFFF" d="M1042.861,303.701h-33.216v68.648c0,7.055,1.846,12.549,5.536,16.487
			c3.691,3.935,8.324,5.904,13.901,5.904c5.905,0,11.153-1.478,15.747-4.429v19.683c-3.445,0.985-6.766,1.805-9.965,2.462
			c-3.198,0.654-6.438,0.983-9.719,0.983c-12.303,0-21.818-2.991-28.541-8.98c-6.729-5.987-10.088-15.134-10.088-27.436v-73.323
			h-28.296v-18.698h28.296v-29.035l23.128-7.381v36.416h33.216V303.701z"/>
		<path fill="#FFFFFF" d="M1088.404,256.955h-26.082v-26.083h26.082V256.955z M1063.799,285.003h23.13v125.485h-23.13V285.003z"/>
		<path fill="#FFFFFF" d="M1187.855,303.701h-33.216v68.648c0,7.055,1.844,12.549,5.537,16.487c3.69,3.935,8.323,5.904,13.899,5.904
			c5.906,0,11.153-1.478,15.75-4.429v19.683c-3.446,0.985-6.768,1.805-9.967,2.462c-3.199,0.654-6.44,0.983-9.719,0.983
			c-12.302,0-21.817-2.991-28.542-8.98c-6.728-5.987-10.089-15.134-10.089-27.436v-73.323h-28.294v-18.698h28.294v-29.035
			l23.13-7.381v36.416h33.216V303.701z"/>
		<path fill="#FFFFFF" d="M1317.229,410.488h-22.392v-19.932h-0.493c-3.445,7.056-8.942,12.632-16.486,16.73
			c-7.547,4.099-15.745,6.153-24.604,6.153c-15.912,0-27.723-4.675-35.43-14.024c-7.712-9.351-11.565-22.636-11.565-39.861v-74.552
			h23.128v64.957c0,15.093,1.968,26.164,5.905,33.216c3.938,7.054,10.826,10.913,20.671,11.565c12.627,0,22.143-4.634,28.542-13.903
			c6.394-9.264,9.593-21.856,9.593-37.77v-58.065h23.131V410.488z"/>
		<path fill="#FFFFFF" d="M1416.825,303.701h-33.218v68.648c0,7.055,1.847,12.549,5.539,16.487
			c3.689,3.935,8.321,5.904,13.901,5.904c5.905,0,11.151-1.478,15.748-4.429v19.683c-3.445,0.985-6.769,1.805-9.966,2.462
			c-3.199,0.654-6.441,0.983-9.721,0.983c-12.301,0-21.816-2.991-28.541-8.98c-6.728-5.987-10.089-15.134-10.089-27.436v-73.323
			h-28.294v-18.698h28.294v-29.035l23.128-7.381v36.416h33.218V303.701z"/>
		<path fill="#FFFFFF" d="M1431.145,321.417c3.032-8.034,7.381-15.009,13.041-20.913c5.658-5.907,12.464-10.457,20.422-13.656
			c7.955-3.201,16.608-4.799,25.959-4.799c9.348,0,17.96,1.599,25.834,4.799c7.873,3.2,14.641,7.75,20.299,13.656
			c5.66,5.904,10.003,12.878,13.04,20.913c3.035,8.039,4.554,16.818,4.554,26.326c0,8.862-1.563,17.31-4.676,25.346
			c-3.119,8.037-7.506,15.095-13.163,21.157c-5.66,6.075-12.428,10.791-20.3,14.148c-7.875,3.362-16.403,5.046-25.588,5.046
			c-9.19,0-17.717-1.684-25.59-5.046c-7.876-3.357-14.727-8.117-20.546-14.271c-5.823-6.148-10.254-13.198-13.286-21.158
			c-3.037-7.953-4.553-16.359-4.553-25.222C1426.592,338.235,1428.107,329.456,1431.145,321.417z M1453.533,364.723
			c1.557,5.577,3.976,10.624,7.261,15.131c3.279,4.514,7.419,8.121,12.423,10.825c5.002,2.708,10.785,4.063,17.35,4.063
			c6.559,0,12.301-1.354,17.223-4.063c4.92-2.704,9.02-6.312,12.302-10.825c3.279-4.507,5.697-9.554,7.258-15.131
			c1.559-5.577,2.338-11.235,2.338-16.979c0-6.063-0.904-11.89-2.706-17.468c-1.807-5.574-4.393-10.619-7.75-15.132
			c-3.364-4.511-7.506-8.035-12.426-10.579c-4.921-2.542-10.333-3.813-16.238-3.813c-6.071,0-11.528,1.271-16.363,3.813
			c-4.842,2.544-8.982,6.068-12.428,10.579c-3.444,4.513-6.07,9.558-7.871,15.132c-1.807,5.578-2.709,11.405-2.709,17.468
			C1451.195,353.487,1451.975,359.146,1453.533,364.723z"/>
		<path fill="#FFFFFF" d="M1650.988,238.745h24.604v171.744h-24.604V238.745z"/>
		<path fill="#FFFFFF" d="M1708.588,285.003h22.392v19.928h0.491c3.442-7.049,8.937-12.627,16.483-16.731
			c7.544-4.099,15.749-6.151,24.608-6.151c15.904,0,27.715,4.638,35.43,13.904c7.707,9.269,11.565,22.597,11.565,39.98v74.555
			h-23.13v-64.957c0-15.089-1.97-26.16-5.906-33.218c-3.938-7.051-10.826-10.906-20.667-11.563c-12.633,0-22.146,4.634-28.542,13.9
			c-6.399,9.269-9.597,21.859-9.597,37.768v58.069h-23.128V285.003z"/>
		<path fill="#FFFFFF" d="M1863.03,303.701h-29.524v-18.698h29.524v-11.564c0-8.202,0.614-15.337,1.847-21.405
			s3.402-11.278,6.518-15.624c3.118-4.347,7.423-7.666,12.92-9.968c5.494-2.293,12.425-3.442,20.79-3.442
			c4.099,0,9.268,0.492,15.501,1.477l-0.984,18.697c-2.623-0.983-6.316-1.476-11.068-1.476c-9.193,0-15.219,2.46-18.088,7.381
			c-2.871,4.922-4.304,12.387-4.304,22.392v13.533h33.215v18.698h-33.215v106.787h-23.131V303.701z"/>
		<path fill="#FFFFFF" d="M1935.662,285.003h22.391v19.928h0.491c3.445-7.049,8.939-12.627,16.483-16.731
			c7.544-4.099,15.75-6.151,24.606-6.151c15.907,0,27.72,4.638,35.43,13.904c7.709,9.269,11.567,22.597,11.567,39.98v74.555h-23.13
			v-64.957c0-15.089-1.97-26.16-5.905-33.218c-3.938-7.051-10.826-10.906-20.668-11.563c-12.633,0-22.144,4.634-28.542,13.9
			c-6.396,9.269-9.597,21.859-9.597,37.768v58.069h-23.127V285.003z"/>
		<path fill="#FFFFFF" d="M2173.713,405.323c-0.984,0.329-2.136,0.733-3.446,1.229c-5.578,2.133-11.03,3.813-16.359,5.043
			c-5.334,1.229-11.936,1.845-19.811,1.845c-21.649,0-37.888-6.028-48.716-18.087c-10.826-12.055-16.238-28.664-16.238-49.822
			c0-9.185,1.391-17.672,4.182-25.467c2.784-7.789,6.765-14.517,11.934-20.175c5.166-5.661,11.399-10.045,18.701-13.164
			c7.295-3.114,15.29-4.677,23.989-4.677c10.167,0,18.821,1.767,25.959,5.292c7.134,3.529,12.876,8.45,17.22,14.762
			c4.348,6.316,7.467,13.741,9.351,22.268c1.884,8.531,2.832,18.044,2.832,28.541h-89.563c0,6.07,1.107,11.689,3.322,16.856
			s5.246,9.637,9.103,13.408c3.854,3.777,8.283,6.646,13.289,8.61c5.001,1.972,10.21,2.955,15.624,2.955
			c3.605,0,7.379-0.407,11.317-1.229s7.706-1.884,11.319-3.199c3.605-1.313,6.803-2.706,9.594-4.184
			c2.788-1.478,4.92-2.786,6.398-3.938V405.323z M2158.703,335.688c0-10.004-2.791-18.328-8.363-24.974
			c-5.58-6.644-13.206-9.964-22.885-9.964c-5.412,0-10.173,0.983-14.271,2.95c-4.102,1.971-7.504,4.641-10.21,7.997
			c-2.708,3.365-4.798,7.138-6.276,11.319c-1.476,4.183-2.46,8.408-2.951,12.671H2158.703z"/>
		<path fill="#FFFFFF" d="M2274.273,303.701h-33.218v68.648c0,7.055,1.847,12.549,5.537,16.487c3.69,3.935,8.323,5.904,13.902,5.904
			c5.905,0,11.152-1.478,15.747-4.429v19.683c-3.445,0.985-6.768,1.805-9.964,2.462c-3.202,0.654-6.442,0.983-9.722,0.983
			c-12.302,0-21.817-2.991-28.542-8.98c-6.728-5.987-10.087-15.134-10.087-27.436v-73.323h-28.294v-18.698h28.294v-29.035
			l23.128-7.381v36.416h33.218V303.701z"/>
	</g>
	<g>
		<g>
			<polygon fill="#FFFFFF" points="613.517,567.195 609.348,567.195 609.348,78.4 613.517,78.4 613.517,567.195 			"/>
		</g>
		<g>
			<polygon fill-rule="evenodd" clip-rule="evenodd" fill="#FFFFFF" points="612.174,291.973 636.821,323.6 612.174,355.226 			"/>
		</g>
	</g>
	<rect x="2923.28" y="-3242.531" display="none" fill="none" width="586.75" height="454.84"/>
	<text transform="matrix(1 0 0 1 3083.1631 -3188.5723)" display="none"><tspan x="0" y="0" display="inline" fill="#1E4450" font-family="'Frutiger55Roman'" font-size="76" letter-spacing="2">Escola </tspan><tspan x="-94.809" y="91.2" display="inline" fill="#1E4450" font-family="'Frutiger55Roman'" font-size="76" letter-spacing="2">superior da </tspan><tspan x="-150.896" y="182.4" display="inline" fill="#1E4450" font-family="'Frutiger55Roman'" font-size="76" letter-spacing="2">tecnologia da </tspan><tspan x="-103.17" y="273.601" display="inline" fill="#1E4450" font-family="'Frutiger55Roman'" font-size="76" letter-spacing="2">informação</tspan></text>
	<rect x="2923.28" y="-4490.531" display="none" fill="none" width="586.75" height="454.839"/>
	<text transform="matrix(1 0 0 1 3083.1631 -4436.5723)" display="none"><tspan x="0" y="0" display="inline" font-family="'Frutiger55Roman'" font-size="76" letter-spacing="2">Escola </tspan><tspan x="-94.809" y="91.2" display="inline" font-family="'Frutiger55Roman'" font-size="76" letter-spacing="2">superior da </tspan><tspan x="-150.896" y="182.4" display="inline" font-family="'Frutiger55Roman'" font-size="76" letter-spacing="2">tecnologia da </tspan><tspan x="-103.17" y="273.601" display="inline" font-family="'Frutiger55Roman'" font-size="76" letter-spacing="2">informação</tspan></text>
	<rect x="2923.28" y="-1990.895" display="none" fill="none" width="586.75" height="454.84"/>
	<text transform="matrix(1 0 0 1 3083.1631 -1936.9355)" display="none"><tspan x="0" y="0" display="inline" fill="#FFFFFF" font-family="'Frutiger55Roman'" font-size="76" letter-spacing="2">Escola </tspan><tspan x="-94.809" y="91.2" display="inline" fill="#FFFFFF" font-family="'Frutiger55Roman'" font-size="76" letter-spacing="2">superior da </tspan><tspan x="-150.896" y="182.4" display="inline" fill="#FFFFFF" font-family="'Frutiger55Roman'" font-size="76" letter-spacing="2">tecnologia da </tspan><tspan x="-103.17" y="273.601" display="inline" fill="#FFFFFF" font-family="'Frutiger55Roman'" font-size="76" letter-spacing="2">informação</tspan></text>
	<g>
		<path fill="#FFFFFF" d="M152.038,292.624c50.854-15.067,103.743-22.718,157.249-22.718c53.557,0,106.446,7.656,157.241,22.734
			c-13.636-74.453-78.845-130.887-157.241-130.887S165.68,218.177,152.038,292.624z"/>
		<path fill="#FFFFFF" d="M462.584,344.031c1.656,0.121,3.297,0.256,4.949,0.381c0.982-6.877,1.525-13.896,1.603-21.025
			c-5.527-0.453-11.078-0.883-16.656-1.287C455.931,328.916,459.306,336.229,462.584,344.031z"/>
		<path fill="#FFFFFF" d="M436.72,404.998c2.906,0.15,5.794,0.324,8.692,0.484c5.328-8.631,9.856-17.805,13.486-27.424
			c-9.416-0.604-18.867-1.17-28.374-1.658C432.651,385.471,434.723,395.006,436.72,404.998z"/>
		<path fill="#FFFFFF" d="M422.569,345.994c2.304,7.938,4.541,16.354,6.71,25.242c10.529,0.539,20.994,1.168,31.41,1.852
			c1.06-3.115,2.016-6.277,2.884-9.475c-1.862-5.346-3.753-10.529-5.678-15.5C446.207,347.311,434.425,346.6,422.569,345.994z"/>
		<path fill="#FFFFFF" d="M392.877,457.918c4.729-2.908,9.292-6.057,13.68-9.424c-4.851-0.174-9.696-0.355-14.563-0.502
			C392.291,451.26,392.585,454.576,392.877,457.918z"/>
		<path fill="#FFFFFF" d="M405.131,297.881c2.591,5.553,5.123,11.621,7.597,18.197c10.721,0.543,21.351,1.182,31.903,1.906
			c-3.325-6.621-6.74-12.744-10.222-18.35C424.723,298.973,414.966,298.383,405.131,297.881z"/>
		<path fill="#FFFFFF" d="M403.641,294.75c9.646,0.494,19.246,1.07,28.767,1.725c-1.186-1.819-2.382-3.557-3.583-5.258
			c-9.988-2.24-20.043-4.204-30.154-5.875C400.349,288.279,402.005,291.399,403.641,294.75z"/>
		<path fill="#FFFFFF" d="M388.155,409.734c1.128,10.168,2.206,20.785,3.247,31.84c7.573,0.232,15.129,0.498,22.665,0.795
			c6.339-5.506,12.235-11.51,17.64-17.938c-0.74-4.439-1.491-8.816-2.256-13.096C415.763,410.691,401.986,410.154,388.155,409.734z"
			/>
		<path fill="#FFFFFF" d="M387.501,403.943c13.698,0.408,27.34,0.936,40.896,1.582c-1.845-10.014-3.76-19.582-5.736-28.668
			c-12.841-0.617-25.75-1.111-38.714-1.506C385.177,384.414,386.357,393.949,387.501,403.943z"/>
		<path fill="#FFFFFF" d="M339.625,446.943c0.242,10.145,0.471,20.674,0.686,31.531c15.824-3.111,30.811-8.555,44.586-15.963
			c-0.374-4.996-0.753-9.926-1.14-14.758C369.1,447.361,354.385,447.086,339.625,446.943z"/>
		<path fill="#FFFFFF" d="M338.624,408.75c0.29,10.145,0.572,20.752,0.843,31.793c14.634,0.141,29.229,0.408,43.763,0.803
			c-0.922-11.057-1.877-21.67-2.875-31.83C366.499,409.137,352.58,408.883,338.624,408.75z"/>
		<path fill="#FFFFFF" d="M415.313,346.381c-11.908-0.568-23.889-1.033-35.922-1.395c1.315,7.918,2.603,16.328,3.854,25.201
			c12.816,0.387,25.582,0.881,38.269,1.49C419.507,362.764,417.441,354.332,415.313,346.381z"/>
		<path fill="#FFFFFF" d="M414.083,341.857c-2.144-7.764-4.356-15.045-6.628-21.816c-10.916-0.521-21.893-0.949-32.934-1.279
			c1.401,6.744,2.773,13.982,4.113,21.723C390.503,340.842,402.342,341.299,414.083,341.857z"/>
		<path fill="#FFFFFF" d="M406.21,316.359c-2.293-6.598-4.633-12.68-7.038-18.26c-9.867-0.465-19.813-0.852-29.796-1.152
			c1.486,5.535,2.938,11.596,4.365,18.152C384.618,315.432,395.446,315.848,406.21,316.359z"/>
		<path fill="#FFFFFF" d="M368.294,318.584c-11.049-0.295-22.153-0.5-33.29-0.611c0.378,6.721,0.75,13.947,1.104,21.66
			c11.979,0.119,23.928,0.332,35.828,0.654C370.755,332.555,369.548,325.316,368.294,318.584z"/>
		<path fill="#FFFFFF" d="M368.516,293.82c9.805,0.291,19.569,0.678,29.277,1.135c-1.703-3.785-3.43-7.295-5.182-10.559
			c-9.356-1.438-18.758-2.632-28.197-3.582C365.805,284.736,367.175,289.055,368.516,293.82z"/>
		<path fill="#FFFFFF" d="M332.159,278.746c0.418,4.26,0.836,9.053,1.239,14.371c9.898,0.098,19.766,0.275,29.584,0.543
			c-1.218-4.905-2.469-9.35-3.742-13.363c-6.638-0.604-13.293-1.09-19.964-1.452C336.904,278.812,334.535,278.769,332.159,278.746z"
			/>
		<path fill="#FFFFFF" d="M376.632,375.143c-12.987-0.352-26.03-0.59-39.118-0.713c0.338,9.037,0.636,18.559,0.937,28.527
			c13.821,0.143,27.606,0.395,41.328,0.768C378.77,393.73,377.722,384.203,376.632,375.143z"/>
		<path fill="#FFFFFF" d="M372.614,344.789c-12.059-0.322-24.165-0.547-36.309-0.662c0.355,7.896,0.693,16.287,1.032,25.146
			c12.926,0.127,25.826,0.363,38.673,0.711C374.915,361.109,373.781,352.707,372.614,344.789z"/>
		<path fill="#FFFFFF" d="M290.776,374.451c-0.582,9.041-1.156,18.563-1.703,28.539c13.896-0.15,27.76-0.182,41.598-0.096
			c-0.173-9.971-0.348-19.482-0.527-28.529C317.052,374.277,303.921,374.311,290.776,374.451z"/>
		<path fill="#FFFFFF" d="M330.04,369.217c-0.182-8.865-0.361-17.248-0.567-25.145c-12.144-0.078-24.336-0.055-36.536,0.078
			c-0.62,7.895-1.229,16.291-1.82,25.145C304.11,369.154,317.101,369.131,330.04,369.217z"/>
		<path fill="#FFFFFF" d="M327.826,293.07c-0.228-5.309-0.466-10.111-0.709-14.373c-8.946-0.057-17.938-0.033-26.921,0.063
			c-0.734,4.262-1.441,9.053-2.146,14.373C307.988,293.033,317.92,293.006,327.826,293.07z"/>
		<path fill="#FFFFFF" d="M328.621,314.271c-0.213-6.533-0.44-12.57-0.662-18.086c-10.086-0.064-20.19-0.041-30.31,0.07
			c-0.686,5.516-1.379,11.547-2.047,18.086C306.635,314.223,317.635,314.201,328.621,314.271z"/>
		<path fill="#FFFFFF" d="M288.759,408.775c-0.544,10.141-1.064,20.748-1.575,31.793c14.706-0.16,29.396-0.189,44.039-0.09
			c-0.141-11.049-0.301-21.646-0.465-31.793C316.784,408.594,302.779,408.623,288.759,408.775z"/>
		<path fill="#FFFFFF" d="M262.603,293.885c9.953-0.309,19.907-0.537,29.854-0.682c0.881-5.318,1.772-10.119,2.678-14.379
			c-7.931,0.112-15.871,0.294-23.81,0.527c-1.081,0.074-2.161,0.148-3.241,0.229C266.219,283.833,264.395,288.603,262.603,293.885z"
			/>
		<path fill="#FFFFFF" d="M286.899,446.973c-0.474,10.537-0.919,21.473-1.35,32.766c7.745,1.152,15.67,1.756,23.736,1.756
			c7.608,0,15.088-0.543,22.413-1.57c-0.122-11.398-0.255-22.424-0.391-33.043C316.542,446.783,301.725,446.811,286.899,446.973z"/>
		<path fill="#FFFFFF" d="M234.759,441.676c14.724-0.465,29.444-0.795,44.158-1.008c0.628-11.041,1.275-21.646,1.953-31.799
			c-14.027,0.197-28.072,0.52-42.108,0.963C237.376,419.994,236.042,430.611,234.759,441.676z"/>
		<path fill="#FFFFFF" d="M234.026,448.086c-0.509,4.525-1.006,9.141-1.498,13.807c13.711,7.518,28.643,13.09,44.426,16.33
			c0.514-10.721,1.05-21.121,1.605-31.146C263.722,447.281,248.875,447.621,234.026,448.086z"/>
		<path fill="#FFFFFF" d="M255.359,318.836c-1.703,6.741-3.364,13.99-4.981,21.727c12.043-0.387,24.1-0.654,36.15-0.826
			c0.788-7.717,1.601-14.941,2.42-21.666C277.765,318.227,266.551,318.486,255.359,318.836z"/>
		<path fill="#FFFFFF" d="M239.56,404.039c13.899-0.441,27.818-0.758,41.695-0.955c0.688-9.977,1.396-19.498,2.131-28.547
			c-13.155,0.189-26.324,0.49-39.476,0.9C242.411,384.508,240.962,394.043,239.56,404.039z"/>
		<path fill="#FFFFFF" d="M227.209,295.383c9.923-0.533,19.854-0.963,29.806-1.309c1.919-5.194,3.881-9.875,5.885-14.07
			c-9.493,0.803-18.951,1.854-28.369,3.146C232.05,286.875,229.61,290.941,227.209,295.383z"/>
		<path fill="#FFFFFF" d="M250.096,315.383c1.885-6.572,3.813-12.633,5.776-18.184c-10.112,0.357-20.237,0.805-30.327,1.332
			c-2.9,5.59-5.736,11.699-8.503,18.301C228.044,316.248,239.068,315.77,250.096,315.383z"/>
		<path fill="#FFFFFF" d="M191.998,297.635c9.841-0.74,19.725-1.387,29.632-1.947c2.434-4.253,4.913-8.17,7.427-11.772
			c-10.236,1.513-20.418,3.323-30.54,5.415C196.321,291.951,194.147,294.714,191.998,297.635z"/>
		<path fill="#FFFFFF" d="M207.507,342.369c12.009-0.631,24.046-1.16,36.095-1.584c1.771-7.74,3.595-14.984,5.47-21.738
			c-11.199,0.395-22.382,0.882-33.542,1.47C212.785,327.299,210.114,334.588,207.507,342.369z"/>
		<path fill="#FFFFFF" d="M197.104,377.414c-2.403,9.105-4.73,18.682-6.991,28.703c13.855-0.732,27.739-1.338,41.636-1.82
			c1.536-10,3.128-19.545,4.766-28.607C223.362,376.146,210.217,376.719,197.104,377.414z"/>
		<path fill="#FFFFFF" d="M242.585,345.291c-12.207,0.428-24.401,0.963-36.568,1.609c-2.569,7.959-5.092,16.414-7.518,25.328v0.008
			c12.964-0.691,25.96-1.26,38.963-1.717C239.117,361.637,240.828,353.221,242.585,345.291z"/>
		<path fill="#FFFFFF" d="M230.874,410.092c-14.035,0.494-28.056,1.111-42.039,1.844c-0.848,3.885-1.68,7.857-2.504,11.873
			c5.688,6.834,11.933,13.189,18.668,18.992c7.16-0.314,14.323-0.598,21.486-0.846C227.895,430.887,229.351,420.266,230.874,410.092
			z"/>
		<path fill="#FFFFFF" d="M212.52,448.885c3.896,2.967,7.932,5.758,12.097,8.363c0.353-2.99,0.71-5.951,1.071-8.881
			C221.296,448.52,216.909,448.709,212.52,448.885z"/>
		<path fill="#FFFFFF" d="M219.872,298.846c-10.097,0.57-20.154,1.232-30.175,1.979c-3.983,5.662-7.882,11.83-11.688,18.506
			c10.914-0.818,21.877-1.543,32.855-2.16C213.796,310.551,216.798,304.441,219.872,298.846z"/>
		<path fill="#FFFFFF" d="M157.109,300.66c9.73-0.963,19.521-1.828,29.354-2.602c1.992-2.604,4.008-5.084,6.042-7.453
			c-11.432,2.498-22.777,5.374-34.026,8.609C158.023,299.7,157.564,300.167,157.109,300.66z"/>
		<path fill="#FFFFFF" d="M199.175,347.27c-12.152,0.688-24.281,1.482-36.354,2.396c-2.386,5.387-4.722,11.012-7.016,16.832
			c0.813,2.785,1.701,5.537,2.659,8.258c10.887-0.787,21.798-1.506,32.744-2.125C193.785,363.701,196.449,355.246,199.175,347.27z"
			/>
		<path fill="#FFFFFF" d="M169.685,323.527c-6.762,0.535-13.503,1.121-20.229,1.73c0.159,7.102,0.778,14.088,1.833,20.934
			c2.293-0.189,4.579-0.395,6.876-0.576C161.907,337.768,165.744,330.398,169.685,323.527z"/>
		<path fill="#FFFFFF" d="M189.733,377.816c-9.835,0.557-19.645,1.201-29.438,1.891c3.746,9.602,8.395,18.75,13.839,27.346
			c2.731-0.164,5.458-0.346,8.192-0.5C184.715,396.512,187.181,386.928,189.733,377.816z"/>
		<g>
			<path fill="#FFFFFF" d="M309.682,80.926c-133.168,0-241.119,107.954-241.119,241.113c0,133.168,107.951,241.121,241.119,241.121
				c133.159,0,241.111-107.953,241.111-241.121C550.793,188.88,442.841,80.926,309.682,80.926z M309.468,494.025
				c-94.871,0-172.054-77.184-172.054-172.053c0-94.864,77.183-172.045,172.054-172.045c94.866,0,172.046,77.181,172.046,172.045
				C481.514,416.842,404.334,494.025,309.468,494.025z"/>
		</g>
	</g>
</g>
</svg>
